# Blender 4.2.0
# www.blender.org
mtllib tornado2.mtl
o Cylinder
v 0.000000 -2.085396 -0.586193
v -0.000000 4.482870 -2.059661
v 0.114361 -2.085396 -0.574930
v 0.401820 4.482870 -2.020085
v 0.224327 -2.085396 -0.541572
v 0.788198 4.482870 -1.902879
v 0.325672 -2.085396 -0.487402
v 1.144286 4.482870 -1.712546
v 0.414501 -2.085396 -0.414501
v 1.456400 4.482870 -1.456400
v 0.487402 -2.085396 -0.325672
v 1.712546 4.482870 -1.144286
v 0.541572 -2.085396 -0.224327
v 1.902879 4.482870 -0.788198
v 0.574930 -2.085396 -0.114361
v 2.020085 4.482870 -0.401820
v 0.586193 -2.085396 -0.000000
v 2.059661 4.482870 0.000000
v 0.574930 -2.085396 0.114361
v 2.020085 4.482870 0.401820
v 0.541572 -2.085396 0.224326
v 1.902879 4.482870 0.788198
v 0.487402 -2.085396 0.325672
v 1.712546 4.482870 1.144286
v 0.414501 -2.085396 0.414501
v 1.456400 4.482870 1.456400
v 0.325672 -2.085396 0.487402
v 1.144286 4.482870 1.712546
v 0.224327 -2.085396 0.541572
v 0.788198 4.482870 1.902879
v 0.114361 -2.085396 0.574930
v 0.401820 4.482870 2.020085
v 0.000000 -2.085396 0.586193
v -0.000000 4.482870 2.059661
v -0.114361 -2.085396 0.574930
v -0.401820 4.482870 2.020085
v -0.224327 -2.085396 0.541572
v -0.788198 4.482870 1.902879
v -0.325672 -2.085396 0.487402
v -1.144286 4.482870 1.712546
v -0.414501 -2.085396 0.414501
v -1.456400 4.482870 1.456400
v -0.487402 -2.085396 0.325672
v -1.712546 4.482870 1.144286
v -0.541572 -2.085396 0.224326
v -1.902879 4.482870 0.788198
v -0.574930 -2.085396 0.114361
v -2.020085 4.482870 0.401820
v -0.586193 -2.085396 -0.000000
v -2.059661 4.482870 0.000000
v -0.574930 -2.085396 -0.114361
v -2.020085 4.482870 -0.401820
v -0.541572 -2.085396 -0.224327
v -1.902879 4.482870 -0.788198
v -0.487402 -2.085396 -0.325672
v -1.712546 4.482870 -1.144286
v -0.414501 -2.085396 -0.414501
v -1.456400 4.482870 -1.456400
v -0.325672 -2.085396 -0.487402
v -1.144286 4.482870 -1.712546
v -0.224327 -2.085396 -0.541572
v -0.788198 4.482870 -1.902879
v -0.114361 -2.085396 -0.574930
v -0.401820 4.482870 -2.020085
v -0.000000 -0.771743 -0.643656
v -0.000000 0.541910 -0.806881
v -0.000000 1.942689 -1.071649
v -0.000000 3.082091 -1.401089
v 0.273339 3.082091 -1.374167
v 0.209068 1.942688 -1.051058
v 0.157415 0.541910 -0.791377
v 0.125571 -0.771743 -0.631288
v 0.536174 3.082091 -1.294437
v 0.410102 1.942688 -0.990075
v 0.308780 0.541910 -0.745461
v 0.246316 -0.771743 -0.594660
v 0.778403 3.082091 -1.164963
v 0.595376 1.942688 -0.891044
v 0.448279 0.541910 -0.670897
v 0.357596 -0.771743 -0.535180
v 0.990719 3.082091 -0.990719
v 0.757770 1.942688 -0.757770
v 0.570551 0.541910 -0.570551
v 0.455133 -0.771743 -0.455133
v 1.164963 3.082091 -0.778403
v 0.891044 1.942688 -0.595376
v 0.670897 0.541910 -0.448279
v 0.535180 -0.771743 -0.357596
v 1.294437 3.082091 -0.536174
v 0.990075 1.942688 -0.410102
v 0.745461 0.541910 -0.308780
v 0.594660 -0.771743 -0.246316
v 1.374167 3.082091 -0.273339
v 1.051058 1.942688 -0.209068
v 0.791377 0.541910 -0.157415
v 0.631288 -0.771743 -0.125571
v 1.401089 3.082091 0.000000
v 1.071649 1.942688 0.000000
v 0.806881 0.541910 -0.000000
v 0.643655 -0.771743 -0.000000
v 1.374167 3.082091 0.273339
v 1.051058 1.942688 0.209068
v 0.791377 0.541910 0.157415
v 0.631288 -0.771743 0.125571
v 1.294437 3.082091 0.536174
v 0.990075 1.942688 0.410102
v 0.745461 0.541910 0.308780
v 0.594660 -0.771743 0.246316
v 1.164963 3.082091 0.778403
v 0.891044 1.942688 0.595376
v 0.670897 0.541910 0.448279
v 0.535180 -0.771743 0.357596
v 0.990719 3.082091 0.990719
v 0.757770 1.942688 0.757770
v 0.570551 0.541910 0.570551
v 0.455133 -0.771743 0.455133
v 0.778403 3.082091 1.164963
v 0.595376 1.942688 0.891044
v 0.448279 0.541910 0.670897
v 0.357596 -0.771743 0.535180
v 0.536174 3.082091 1.294437
v 0.410102 1.942688 0.990075
v 0.308780 0.541910 0.745461
v 0.246316 -0.771743 0.594660
v 0.273339 3.082091 1.374167
v 0.209068 1.942688 1.051058
v 0.157415 0.541910 0.791377
v 0.125571 -0.771743 0.631288
v -0.000000 3.082091 1.401089
v -0.000000 1.942688 1.071649
v -0.000000 0.541910 0.806881
v -0.000000 -0.771743 0.643655
v -0.273339 3.082091 1.374167
v -0.209068 1.942688 1.051058
v -0.157415 0.541910 0.791377
v -0.125571 -0.771743 0.631288
v -0.536174 3.082091 1.294437
v -0.410102 1.942688 0.990075
v -0.308780 0.541910 0.745461
v -0.246316 -0.771743 0.594660
v -0.778403 3.082091 1.164963
v -0.595376 1.942688 0.891044
v -0.448279 0.541910 0.670897
v -0.357596 -0.771743 0.535180
v -0.990719 3.082091 0.990719
v -0.757770 1.942688 0.757770
v -0.570551 0.541910 0.570551
v -0.455133 -0.771743 0.455133
v -1.164963 3.082091 0.778403
v -0.891044 1.942688 0.595376
v -0.670897 0.541910 0.448279
v -0.535180 -0.771743 0.357596
v -1.294437 3.082091 0.536174
v -0.990075 1.942688 0.410102
v -0.745461 0.541910 0.308780
v -0.594660 -0.771743 0.246316
v -1.374167 3.082091 0.273339
v -1.051058 1.942688 0.209068
v -0.791377 0.541910 0.157415
v -0.631288 -0.771743 0.125571
v -1.401089 3.082091 0.000000
v -1.071649 1.942688 0.000000
v -0.806881 0.541910 -0.000000
v -0.643655 -0.771743 -0.000000
v -1.374167 3.082091 -0.273339
v -1.051058 1.942688 -0.209068
v -0.791377 0.541910 -0.157415
v -0.631288 -0.771743 -0.125571
v -1.294437 3.082091 -0.536174
v -0.990075 1.942688 -0.410102
v -0.745461 0.541910 -0.308780
v -0.594660 -0.771743 -0.246316
v -1.164963 3.082091 -0.778403
v -0.891044 1.942688 -0.595376
v -0.670897 0.541910 -0.448279
v -0.535180 -0.771743 -0.357596
v -0.990719 3.082091 -0.990719
v -0.757770 1.942688 -0.757770
v -0.570551 0.541910 -0.570551
v -0.455133 -0.771743 -0.455133
v -0.778403 3.082091 -1.164963
v -0.595376 1.942688 -0.891044
v -0.448279 0.541910 -0.670897
v -0.357596 -0.771743 -0.535180
v -0.536174 3.082091 -1.294437
v -0.410102 1.942688 -0.990075
v -0.308780 0.541910 -0.745461
v -0.246316 -0.771743 -0.594660
v -0.273339 3.082091 -1.374167
v -0.209068 1.942688 -1.051058
v -0.157415 0.541910 -0.791377
v -0.125571 -0.771743 -0.631288
vn -0.0000 -0.0437 -0.9990
vn -0.0000 -0.4255 -0.9050
vn 0.1949 -0.0437 -0.9798
vn 0.1766 -0.4255 -0.8876
vn 0.3823 -0.0437 -0.9230
vn 0.3463 -0.4255 -0.8361
vn 0.5550 -0.0437 -0.8307
vn 0.5028 -0.4255 -0.7525
vn 0.7064 -0.0437 -0.7064
vn 0.6399 -0.4255 -0.6399
vn 0.8307 -0.0437 -0.5550
vn 0.7525 -0.4255 -0.5028
vn 0.9230 -0.0437 -0.3823
vn 0.8361 -0.4255 -0.3463
vn 0.9798 -0.0437 -0.1949
vn 0.8876 -0.4255 -0.1766
vn 0.9990 -0.0437 -0.0000
vn 0.9050 -0.4255 -0.0000
vn 0.9798 -0.0437 0.1949
vn 0.8876 -0.4255 0.1766
vn 0.9230 -0.0437 0.3823
vn 0.8361 -0.4255 0.3463
vn 0.8307 -0.0437 0.5550
vn 0.7525 -0.4255 0.5028
vn 0.7064 -0.0437 0.7064
vn 0.6399 -0.4255 0.6399
vn 0.5550 -0.0437 0.8307
vn 0.5028 -0.4255 0.7525
vn 0.3823 -0.0437 0.9230
vn 0.3463 -0.4255 0.8361
vn 0.1949 -0.0437 0.9798
vn 0.1766 -0.4255 0.8876
vn -0.0000 -0.0437 0.9990
vn -0.0000 -0.4255 0.9050
vn -0.1949 -0.0437 0.9798
vn -0.1766 -0.4255 0.8876
vn -0.3823 -0.0437 0.9230
vn -0.3463 -0.4255 0.8361
vn -0.5550 -0.0437 0.8307
vn -0.5028 -0.4255 0.7525
vn -0.7064 -0.0437 0.7064
vn -0.6399 -0.4255 0.6399
vn -0.8307 -0.0437 0.5550
vn -0.7525 -0.4255 0.5028
vn -0.9230 -0.0437 0.3823
vn -0.8361 -0.4255 0.3463
vn -0.9798 -0.0437 0.1949
vn -0.8876 -0.4255 0.1766
vn -0.9990 -0.0437 -0.0000
vn -0.9050 -0.4255 -0.0000
vn -0.9798 -0.0437 -0.1949
vn -0.8876 -0.4255 -0.1766
vn -0.9230 -0.0437 -0.3823
vn -0.8361 -0.4255 -0.3463
vn -0.8307 -0.0437 -0.5550
vn -0.7525 -0.4255 -0.5028
vn -0.7064 -0.0437 -0.7064
vn -0.6399 -0.4255 -0.6399
vn -0.5550 -0.0437 -0.8307
vn -0.5028 -0.4255 -0.7525
vn -0.3823 -0.0437 -0.9230
vn -0.3463 -0.4255 -0.8361
vn -0.1949 -0.0437 -0.9798
vn -0.1766 -0.4255 -0.8876
vn -0.0000 -0.0838 -0.9965
vn -0.0000 -0.1549 -0.9879
vn -0.0000 -0.2327 -0.9726
vn -0.0000 -0.3543 -0.9351
vn 0.1824 -0.3543 -0.9171
vn 0.1897 -0.2327 -0.9539
vn 0.1927 -0.1549 -0.9689
vn 0.1944 -0.0838 -0.9773
vn 0.3579 -0.3543 -0.8639
vn 0.3722 -0.2327 -0.8985
vn 0.3781 -0.1549 -0.9127
vn 0.3813 -0.0838 -0.9206
vn 0.5195 -0.3543 -0.7775
vn 0.5403 -0.2327 -0.8087
vn 0.5489 -0.1549 -0.8214
vn 0.5536 -0.0838 -0.8285
vn 0.6612 -0.3543 -0.6612
vn 0.6877 -0.2327 -0.6877
vn 0.6986 -0.1549 -0.6986
vn 0.7046 -0.0838 -0.7046
vn 0.7775 -0.3543 -0.5195
vn 0.8087 -0.2327 -0.5403
vn 0.8214 -0.1549 -0.5489
vn 0.8285 -0.0838 -0.5536
vn 0.8639 -0.3543 -0.3579
vn 0.8985 -0.2327 -0.3722
vn 0.9127 -0.1549 -0.3781
vn 0.9206 -0.0838 -0.3813
vn 0.9171 -0.3543 -0.1824
vn 0.9539 -0.2327 -0.1897
vn 0.9689 -0.1549 -0.1927
vn 0.9773 -0.0838 -0.1944
vn 0.9351 -0.3543 -0.0000
vn 0.9726 -0.2327 -0.0000
vn 0.9879 -0.1549 -0.0000
vn 0.9965 -0.0838 -0.0000
vn 0.9171 -0.3543 0.1824
vn 0.9539 -0.2327 0.1897
vn 0.9689 -0.1549 0.1927
vn 0.9773 -0.0838 0.1944
vn 0.8639 -0.3543 0.3579
vn 0.8985 -0.2327 0.3722
vn 0.9127 -0.1549 0.3781
vn 0.9206 -0.0838 0.3813
vn 0.7775 -0.3543 0.5195
vn 0.8087 -0.2327 0.5403
vn 0.8214 -0.1549 0.5489
vn 0.8285 -0.0838 0.5536
vn 0.6612 -0.3543 0.6612
vn 0.6877 -0.2327 0.6877
vn 0.6986 -0.1549 0.6986
vn 0.7046 -0.0838 0.7046
vn 0.5195 -0.3543 0.7775
vn 0.5403 -0.2327 0.8087
vn 0.5489 -0.1549 0.8214
vn 0.5536 -0.0838 0.8285
vn 0.3579 -0.3543 0.8639
vn 0.3722 -0.2327 0.8985
vn 0.3781 -0.1549 0.9127
vn 0.3813 -0.0838 0.9206
vn 0.1824 -0.3543 0.9171
vn 0.1897 -0.2327 0.9539
vn 0.1927 -0.1549 0.9689
vn 0.1944 -0.0838 0.9773
vn -0.0000 -0.3543 0.9351
vn -0.0000 -0.2327 0.9726
vn -0.0000 -0.1549 0.9879
vn -0.0000 -0.0838 0.9965
vn -0.1824 -0.3543 0.9171
vn -0.1897 -0.2327 0.9539
vn -0.1927 -0.1549 0.9689
vn -0.1944 -0.0838 0.9773
vn -0.3579 -0.3543 0.8639
vn -0.3722 -0.2327 0.8985
vn -0.3781 -0.1549 0.9127
vn -0.3813 -0.0838 0.9206
vn -0.5195 -0.3543 0.7775
vn -0.5403 -0.2327 0.8087
vn -0.5489 -0.1549 0.8214
vn -0.5536 -0.0838 0.8285
vn -0.6612 -0.3543 0.6612
vn -0.6877 -0.2327 0.6877
vn -0.6986 -0.1549 0.6986
vn -0.7046 -0.0838 0.7046
vn -0.7775 -0.3543 0.5195
vn -0.8087 -0.2327 0.5403
vn -0.8214 -0.1549 0.5489
vn -0.8285 -0.0838 0.5536
vn -0.8639 -0.3543 0.3579
vn -0.8985 -0.2327 0.3722
vn -0.9127 -0.1549 0.3781
vn -0.9206 -0.0838 0.3813
vn -0.9171 -0.3543 0.1824
vn -0.9539 -0.2327 0.1897
vn -0.9689 -0.1549 0.1927
vn -0.9773 -0.0838 0.1944
vn -0.9351 -0.3543 -0.0000
vn -0.9726 -0.2327 -0.0000
vn -0.9879 -0.1549 -0.0000
vn -0.9965 -0.0838 -0.0000
vn -0.9171 -0.3543 -0.1824
vn -0.9539 -0.2327 -0.1897
vn -0.9689 -0.1549 -0.1927
vn -0.9773 -0.0838 -0.1944
vn -0.8639 -0.3543 -0.3579
vn -0.8985 -0.2327 -0.3722
vn -0.9127 -0.1549 -0.3781
vn -0.9206 -0.0838 -0.3813
vn -0.7775 -0.3543 -0.5195
vn -0.8087 -0.2327 -0.5403
vn -0.8214 -0.1549 -0.5489
vn -0.8285 -0.0838 -0.5536
vn -0.6612 -0.3543 -0.6612
vn -0.6877 -0.2327 -0.6877
vn -0.6986 -0.1549 -0.6986
vn -0.7046 -0.0838 -0.7046
vn -0.5195 -0.3543 -0.7775
vn -0.5403 -0.2327 -0.8087
vn -0.5489 -0.1549 -0.8214
vn -0.5536 -0.0838 -0.8285
vn -0.3579 -0.3543 -0.8639
vn -0.3722 -0.2327 -0.8985
vn -0.3781 -0.1549 -0.9127
vn -0.3813 -0.0838 -0.9206
vn -0.1824 -0.3543 -0.9171
vn -0.1897 -0.2327 -0.9539
vn -0.1927 -0.1549 -0.9689
vn -0.1944 -0.0838 -0.9773
vt 0.750000 0.786736
vt 0.750000 1.000000
vt 0.718750 1.000000
vt 0.718750 0.786736
vt 0.687500 1.000000
vt 0.687500 0.786736
vt 0.656250 1.000000
vt 0.656250 0.786736
vt 0.625000 1.000000
vt 0.625000 0.786736
vt 0.593750 1.000000
vt 0.593750 0.786736
vt 0.562500 1.000000
vt 0.562500 0.786736
vt 0.531250 1.000000
vt 0.531250 0.786736
vt 0.500000 1.000000
vt 0.500000 0.786736
vt 0.468750 1.000000
vt 0.468750 0.786736
vt 0.437500 1.000000
vt 0.437500 0.786736
vt 0.406250 1.000000
vt 0.406250 0.786736
vt 0.375000 1.000000
vt 0.375000 0.786736
vt 0.343750 1.000000
vt 0.343750 0.786736
vt 0.312500 1.000000
vt 0.312500 0.786736
vt 0.281250 1.000000
vt 0.281250 0.786736
vt 0.250000 1.000000
vt 0.250000 0.786736
vt 0.218750 1.000000
vt 0.218750 0.786736
vt 0.187500 1.000000
vt 0.187500 0.786736
vt 0.156250 1.000000
vt 0.156250 0.786736
vt 0.125000 1.000000
vt 0.125000 0.786736
vt 0.093750 1.000000
vt 0.093750 0.786736
vt 0.062500 1.000000
vt 0.062500 0.786736
vt 0.031250 1.000000
vt 0.031250 0.786736
vt 0.000000 1.000000
vt 0.000000 0.786736
vt 1.000000 0.786736
vt 1.000000 1.000000
vt 0.968750 1.000000
vt 0.968750 0.786736
vt 0.937500 1.000000
vt 0.937500 0.786736
vt 0.906250 1.000000
vt 0.906250 0.786736
vt 0.875000 1.000000
vt 0.875000 0.786736
vt 0.843750 1.000000
vt 0.843750 0.786736
vt 0.812500 1.000000
vt 0.812500 0.786736
vt 0.781250 1.000000
vt 0.781250 0.786736
vt 0.781250 0.000001
vt 0.781250 0.200001
vt 0.750000 0.200001
vt 0.750000 0.000001
vt 0.781250 0.400001
vt 0.750000 0.400001
vt 0.781250 0.613265
vt 0.750000 0.613265
vt 0.812500 0.000001
vt 0.812500 0.200001
vt 0.812500 0.400001
vt 0.812500 0.613265
vt 0.843750 0.000001
vt 0.843750 0.200001
vt 0.843750 0.400001
vt 0.843750 0.613265
vt 0.875000 0.000001
vt 0.875000 0.200001
vt 0.875000 0.400001
vt 0.875000 0.613265
vt 0.906250 0.000001
vt 0.906250 0.200001
vt 0.906250 0.400001
vt 0.906250 0.613265
vt 0.937500 0.000001
vt 0.937500 0.200001
vt 0.937500 0.400001
vt 0.937500 0.613265
vt 0.968750 0.000001
vt 0.968750 0.200001
vt 0.968750 0.400001
vt 0.968750 0.613265
vt 1.000000 0.000001
vt 1.000000 0.200001
vt 1.000000 0.400001
vt 1.000000 0.613265
vt 0.031250 0.000001
vt 0.031250 0.200001
vt 0.000000 0.200001
vt 0.000000 0.000001
vt 0.031250 0.400001
vt 0.000000 0.400001
vt 0.031250 0.613265
vt 0.000000 0.613265
vt 0.062500 0.000001
vt 0.062500 0.200001
vt 0.062500 0.400001
vt 0.062500 0.613265
vt 0.093750 0.000001
vt 0.093750 0.200001
vt 0.093750 0.400001
vt 0.093750 0.613265
vt 0.125000 0.000001
vt 0.125000 0.200001
vt 0.125000 0.400001
vt 0.125000 0.613265
vt 0.156250 0.000001
vt 0.156250 0.200001
vt 0.156250 0.400001
vt 0.156250 0.613265
vt 0.187500 0.000001
vt 0.187500 0.200001
vt 0.187500 0.400001
vt 0.187500 0.613265
vt 0.218750 0.000001
vt 0.218750 0.200001
vt 0.218750 0.400001
vt 0.218750 0.613265
vt 0.250000 0.000001
vt 0.250000 0.200001
vt 0.250000 0.400001
vt 0.250000 0.613265
vt 0.281250 0.000001
vt 0.281250 0.200001
vt 0.281250 0.400001
vt 0.281250 0.613265
vt 0.312500 0.000001
vt 0.312500 0.200001
vt 0.312500 0.400001
vt 0.312500 0.613265
vt 0.343750 0.000001
vt 0.343750 0.200001
vt 0.343750 0.400001
vt 0.343750 0.613265
vt 0.375000 0.000001
vt 0.375000 0.200001
vt 0.375000 0.400001
vt 0.375000 0.613265
vt 0.406250 0.000001
vt 0.406250 0.200001
vt 0.406250 0.400001
vt 0.406250 0.613265
vt 0.437500 0.000001
vt 0.437500 0.200001
vt 0.437500 0.400001
vt 0.437500 0.613265
vt 0.468750 0.000001
vt 0.468750 0.200001
vt 0.468750 0.400001
vt 0.468750 0.613265
vt 0.500000 0.000001
vt 0.500000 0.200001
vt 0.500000 0.400001
vt 0.500000 0.613265
vt 0.531250 0.000001
vt 0.531250 0.200001
vt 0.531250 0.400001
vt 0.531250 0.613265
vt 0.562500 0.000001
vt 0.562500 0.200001
vt 0.562500 0.400001
vt 0.562500 0.613265
vt 0.593750 0.000001
vt 0.593750 0.200001
vt 0.593750 0.400001
vt 0.593750 0.613265
vt 0.625000 0.000001
vt 0.625000 0.200001
vt 0.625000 0.400001
vt 0.625000 0.613265
vt 0.656250 0.000001
vt 0.656250 0.200001
vt 0.656250 0.400001
vt 0.656250 0.613265
vt 0.687500 0.000001
vt 0.687500 0.200001
vt 0.687500 0.400001
vt 0.687500 0.613265
vt 0.718750 0.000001
vt 0.718750 0.200001
vt 0.718750 0.400001
vt 0.718750 0.613265
s 1
f 68/1/68 2/2/2 4/3/4 69/4/69
f 69/4/69 4/3/4 6/5/6 73/6/73
f 73/6/73 6/5/6 8/7/8 77/8/77
f 77/8/77 8/7/8 10/9/10 81/10/81
f 81/10/81 10/9/10 12/11/12 85/12/85
f 85/12/85 12/11/12 14/13/14 89/14/89
f 89/14/89 14/13/14 16/15/16 93/16/93
f 93/16/93 16/15/16 18/17/18 97/18/97
f 97/18/97 18/17/18 20/19/20 101/20/101
f 101/20/101 20/19/20 22/21/22 105/22/105
f 105/22/105 22/21/22 24/23/24 109/24/109
f 109/24/109 24/23/24 26/25/26 113/26/113
f 113/26/113 26/25/26 28/27/28 117/28/117
f 117/28/117 28/27/28 30/29/30 121/30/121
f 121/30/121 30/29/30 32/31/32 125/32/125
f 125/32/125 32/31/32 34/33/34 129/34/129
f 129/34/129 34/33/34 36/35/36 133/36/133
f 133/36/133 36/35/36 38/37/38 137/38/137
f 137/38/137 38/37/38 40/39/40 141/40/141
f 141/40/141 40/39/40 42/41/42 145/42/145
f 145/42/145 42/41/42 44/43/44 149/44/149
f 149/44/149 44/43/44 46/45/46 153/46/153
f 153/46/153 46/45/46 48/47/48 157/48/157
f 157/48/157 48/47/48 50/49/50 161/50/161
f 161/51/161 50/52/50 52/53/52 165/54/165
f 165/54/165 52/53/52 54/55/54 169/56/169
f 169/56/169 54/55/54 56/57/56 173/58/173
f 173/58/173 56/57/56 58/59/58 177/60/177
f 177/60/177 58/59/58 60/61/60 181/62/181
f 181/62/181 60/61/60 62/63/62 185/64/185
f 185/64/185 62/63/62 64/65/64 189/66/189
f 189/66/189 64/65/64 2/2/2 68/1/68
f 63/67/63 192/68/192 65/69/65 1/70/1
f 192/68/192 191/71/191 66/72/66 65/69/65
f 191/71/191 190/73/190 67/74/67 66/72/66
f 190/73/190 189/66/189 68/1/68 67/74/67
f 61/75/61 188/76/188 192/68/192 63/67/63
f 188/76/188 187/77/187 191/71/191 192/68/192
f 187/77/187 186/78/186 190/73/190 191/71/191
f 186/78/186 185/64/185 189/66/189 190/73/190
f 59/79/59 184/80/184 188/76/188 61/75/61
f 184/80/184 183/81/183 187/77/187 188/76/188
f 183/81/183 182/82/182 186/78/186 187/77/187
f 182/82/182 181/62/181 185/64/185 186/78/186
f 57/83/57 180/84/180 184/80/184 59/79/59
f 180/84/180 179/85/179 183/81/183 184/80/184
f 179/85/179 178/86/178 182/82/182 183/81/183
f 178/86/178 177/60/177 181/62/181 182/82/182
f 55/87/55 176/88/176 180/84/180 57/83/57
f 176/88/176 175/89/175 179/85/179 180/84/180
f 175/89/175 174/90/174 178/86/178 179/85/179
f 174/90/174 173/58/173 177/60/177 178/86/178
f 53/91/53 172/92/172 176/88/176 55/87/55
f 172/92/172 171/93/171 175/89/175 176/88/176
f 171/93/171 170/94/170 174/90/174 175/89/175
f 170/94/170 169/56/169 173/58/173 174/90/174
f 51/95/51 168/96/168 172/92/172 53/91/53
f 168/96/168 167/97/167 171/93/171 172/92/172
f 167/97/167 166/98/166 170/94/170 171/93/171
f 166/98/166 165/54/165 169/56/169 170/94/170
f 49/99/49 164/100/164 168/96/168 51/95/51
f 164/100/164 163/101/163 167/97/167 168/96/168
f 163/101/163 162/102/162 166/98/166 167/97/167
f 162/102/162 161/51/161 165/54/165 166/98/166
f 47/103/47 160/104/160 164/105/164 49/106/49
f 160/104/160 159/107/159 163/108/163 164/105/164
f 159/107/159 158/109/158 162/110/162 163/108/163
f 158/109/158 157/48/157 161/50/161 162/110/162
f 45/111/45 156/112/156 160/104/160 47/103/47
f 156/112/156 155/113/155 159/107/159 160/104/160
f 155/113/155 154/114/154 158/109/158 159/107/159
f 154/114/154 153/46/153 157/48/157 158/109/158
f 43/115/43 152/116/152 156/112/156 45/111/45
f 152/116/152 151/117/151 155/113/155 156/112/156
f 151/117/151 150/118/150 154/114/154 155/113/155
f 150/118/150 149/44/149 153/46/153 154/114/154
f 41/119/41 148/120/148 152/116/152 43/115/43
f 148/120/148 147/121/147 151/117/151 152/116/152
f 147/121/147 146/122/146 150/118/150 151/117/151
f 146/122/146 145/42/145 149/44/149 150/118/150
f 39/123/39 144/124/144 148/120/148 41/119/41
f 144/124/144 143/125/143 147/121/147 148/120/148
f 143/125/143 142/126/142 146/122/146 147/121/147
f 142/126/142 141/40/141 145/42/145 146/122/146
f 37/127/37 140/128/140 144/124/144 39/123/39
f 140/128/140 139/129/139 143/125/143 144/124/144
f 139/129/139 138/130/138 142/126/142 143/125/143
f 138/130/138 137/38/137 141/40/141 142/126/142
f 35/131/35 136/132/136 140/128/140 37/127/37
f 136/132/136 135/133/135 139/129/139 140/128/140
f 135/133/135 134/134/134 138/130/138 139/129/139
f 134/134/134 133/36/133 137/38/137 138/130/138
f 33/135/33 132/136/132 136/132/136 35/131/35
f 132/136/132 131/137/131 135/133/135 136/132/136
f 131/137/131 130/138/130 134/134/134 135/133/135
f 130/138/130 129/34/129 133/36/133 134/134/134
f 31/139/31 128/140/128 132/136/132 33/135/33
f 128/140/128 127/141/127 131/137/131 132/136/132
f 127/141/127 126/142/126 130/138/130 131/137/131
f 126/142/126 125/32/125 129/34/129 130/138/130
f 29/143/29 124/144/124 128/140/128 31/139/31
f 124/144/124 123/145/123 127/141/127 128/140/128
f 123/145/123 122/146/122 126/142/126 127/141/127
f 122/146/122 121/30/121 125/32/125 126/142/126
f 27/147/27 120/148/120 124/144/124 29/143/29
f 120/148/120 119/149/119 123/145/123 124/144/124
f 119/149/119 118/150/118 122/146/122 123/145/123
f 118/150/118 117/28/117 121/30/121 122/146/122
f 25/151/25 116/152/116 120/148/120 27/147/27
f 116/152/116 115/153/115 119/149/119 120/148/120
f 115/153/115 114/154/114 118/150/118 119/149/119
f 114/154/114 113/26/113 117/28/117 118/150/118
f 23/155/23 112/156/112 116/152/116 25/151/25
f 112/156/112 111/157/111 115/153/115 116/152/116
f 111/157/111 110/158/110 114/154/114 115/153/115
f 110/158/110 109/24/109 113/26/113 114/154/114
f 21/159/21 108/160/108 112/156/112 23/155/23
f 108/160/108 107/161/107 111/157/111 112/156/112
f 107/161/107 106/162/106 110/158/110 111/157/111
f 106/162/106 105/22/105 109/24/109 110/158/110
f 19/163/19 104/164/104 108/160/108 21/159/21
f 104/164/104 103/165/103 107/161/107 108/160/108
f 103/165/103 102/166/102 106/162/106 107/161/107
f 102/166/102 101/20/101 105/22/105 106/162/106
f 17/167/17 100/168/100 104/164/104 19/163/19
f 100/168/100 99/169/99 103/165/103 104/164/104
f 99/169/99 98/170/98 102/166/102 103/165/103
f 98/170/98 97/18/97 101/20/101 102/166/102
f 15/171/15 96/172/96 100/168/100 17/167/17
f 96/172/96 95/173/95 99/169/99 100/168/100
f 95/173/95 94/174/94 98/170/98 99/169/99
f 94/174/94 93/16/93 97/18/97 98/170/98
f 13/175/13 92/176/92 96/172/96 15/171/15
f 92/176/92 91/177/91 95/173/95 96/172/96
f 91/177/91 90/178/90 94/174/94 95/173/95
f 90/178/90 89/14/89 93/16/93 94/174/94
f 11/179/11 88/180/88 92/176/92 13/175/13
f 88/180/88 87/181/87 91/177/91 92/176/92
f 87/181/87 86/182/86 90/178/90 91/177/91
f 86/182/86 85/12/85 89/14/89 90/178/90
f 9/183/9 84/184/84 88/180/88 11/179/11
f 84/184/84 83/185/83 87/181/87 88/180/88
f 83/185/83 82/186/82 86/182/86 87/181/87
f 82/186/82 81/10/81 85/12/85 86/182/86
f 7/187/7 80/188/80 84/184/84 9/183/9
f 80/188/80 79/189/79 83/185/83 84/184/84
f 79/189/79 78/190/78 82/186/82 83/185/83
f 78/190/78 77/8/77 81/10/81 82/186/82
f 5/191/5 76/192/76 80/188/80 7/187/7
f 76/192/76 75/193/75 79/189/79 80/188/80
f 75/193/75 74/194/74 78/190/78 79/189/79
f 74/194/74 73/6/73 77/8/77 78/190/78
f 3/195/3 72/196/72 76/192/76 5/191/5
f 72/196/72 71/197/71 75/193/75 76/192/76
f 71/197/71 70/198/70 74/194/74 75/193/75
f 70/198/70 69/4/69 73/6/73 74/194/74
f 1/70/1 65/69/65 72/196/72 3/195/3
f 65/69/65 66/72/66 71/197/71 72/196/72
f 66/72/66 67/74/67 70/198/70 71/197/71
f 67/74/67 68/1/68 69/4/69 70/198/70
